<?xml version="1.0" encoding="UTF-8"?>
<svg version="1.1" xmlns="http://www.w3.org/2000/svg" width="1024" height="1024">
<path d="M0 0 C337.92 0 675.84 0 1024 0 C1024 337.92 1024 675.84 1024 1024 C686.08 1024 348.16 1024 0 1024 C0 686.08 0 348.16 0 0 Z " fill="#000000" transform="translate(0,0)"/>
<path d="M0 0 C31.24349417 4.31820651 65.53941284 30.44488465 91 48 C91.82806152 48.56895996 92.65612305 49.13791992 93.50927734 49.72412109 C116.17832435 65.33280665 137.74357286 82.35167362 158 101 C158.61842773 101.56799316 159.23685547 102.13598633 159.87402344 102.72119141 C161.98358271 104.66288788 164.08634236 106.61171721 166.1875 108.5625 C166.85305908 109.17577148 167.51861816 109.78904297 168.2043457 110.42089844 C176.57636183 118.23602924 184.61269667 126.11615471 187.125 137.625 C187.3720166 138.72763184 187.3720166 138.72763184 187.62402344 139.85253906 C196.94975394 183.85890694 187.55712834 230.32196139 163.57714844 268.25048828 C151.32674792 286.89649924 136.15054714 304.12191741 118.60546875 317.9453125 C116.91307577 319.27994324 115.24670417 320.64850018 113.61328125 322.0546875 C65.28148151 363.48194442 0.93537193 385.13436409 -58.19921875 405.8828125 C-90.94533958 417.37851181 -122.77749953 429.81784139 -153 447 C-153.7827832 447.44375977 -154.56556641 447.88751953 -155.37207031 448.34472656 C-177.71065289 461.07241141 -198.84413854 475.82737442 -218 493 C-218.79881592 493.70624512 -218.79881592 493.70624512 -219.61376953 494.42675781 C-232.53701981 505.87138432 -244.30727091 518.45303646 -255 532 C-255.62648438 532.75796875 -256.25296875 533.5159375 -256.8984375 534.296875 C-267.37818607 547.04367122 -276.54849472 560.84337474 -285 575 C-285.5578418 575.93199219 -285.5578418 575.93199219 -286.12695312 576.8828125 C-309.80214379 616.80077065 -327.55154829 664.03790844 -327.3125 710.875 C-327.31067719 711.61946381 -327.30885437 712.36392761 -327.30697632 713.13095093 C-327.2343338 730.76320752 -326.14211309 749.39998974 -315 764 C-314.01 765.485 -314.01 765.485 -313 767 C-321.15972423 765.632789 -328.05557313 762.45123855 -335.4375 758.8125 C-336.07071167 758.5028833 -336.70392334 758.1932666 -337.35632324 757.87426758 C-369.80067552 741.97315218 -400.38738162 722.03984144 -429 700 C-429.61746094 699.52594727 -430.23492187 699.05189453 -430.87109375 698.56347656 C-434.950513 695.42056915 -438.9840984 692.22350666 -443 689 C-443.98444092 688.21278564 -443.98444092 688.21278564 -444.98876953 687.40966797 C-453.209927 680.82694564 -461.23402882 674.11880692 -469 667 C-470.32952503 665.82899526 -471.66272954 664.66215171 -473 663.5 C-473.97839844 662.64341797 -473.97839844 662.64341797 -474.9765625 661.76953125 C-476.34249491 660.57499963 -477.71239518 659.38499218 -479.0859375 658.19921875 C-481.20054965 656.34081387 -483.27797101 654.44844307 -485.33886719 652.53076172 C-486.56400729 651.40177459 -487.80083898 650.28544348 -489.04394531 649.17626953 C-500.70835563 638.70163921 -508.11164211 628.82843241 -514.04638672 614.31738281 C-516.80440048 607.61511281 -519.33623407 602.97889919 -525.125 598.5 C-525.66253906 598.05914063 -526.20007813 597.61828125 -526.75390625 597.1640625 C-529.53261276 594.73456428 -529.53261276 594.73456428 -533 594 C-532.4946875 594.90363281 -531.989375 595.80726563 -531.46875 596.73828125 C-530.8121697 597.92950551 -530.15593782 599.12092185 -529.5 600.3125 C-529.16613281 600.90740234 -528.83226562 601.50230469 -528.48828125 602.11523438 C-526.93174886 604.95828844 -526 606.70660988 -526 610 C-528.55902831 607.55923464 -531.09357579 605.09435777 -533.625 602.625 C-534.69427734 601.60599609 -534.69427734 601.60599609 -535.78515625 600.56640625 C-544.22432552 592.28208412 -548.56410491 583.96083643 -551.25 572.5 C-551.49234375 571.53191406 -551.7346875 570.56382812 -551.984375 569.56640625 C-565.95422033 513.00371727 -555.11732101 453.82186069 -527.94580078 402.79443359 C-526.99814377 400.99647824 -526.08800595 399.18331939 -525.18359375 397.36328125 C-516.35734557 379.85306849 -504.31514122 364.17996035 -492 349 C-491.25194092 348.07405029 -491.25194092 348.07405029 -490.48876953 347.12939453 C-483.29404392 338.31059919 -475.39124146 330.1908926 -467.375 322.125 C-466.89362579 321.63826813 -466.41225159 321.15153625 -465.91629028 320.65005493 C-459.29104131 313.96888119 -452.36167124 307.86045648 -445 302 C-443.69440571 300.91567186 -442.39193375 299.82756433 -441.09375 298.734375 C-431.1716354 290.46028519 -420.76620509 283.1289429 -410 276 C-408.60801316 275.06519314 -407.21608377 274.13030073 -405.82421875 273.1953125 C-342.61586709 231.13220078 -270.67250705 212.24192956 -197 198 C-195.56930277 197.72201311 -194.1386382 197.44385803 -192.70800781 197.16552734 C-187.38261594 196.13026881 -182.05626041 195.1000836 -176.72900391 194.07446289 C-114.08303181 182.01068562 -36.21261114 166.58282492 3.18286133 110.38085938 C18.34205143 87.65534847 25.203686 63.60269102 20.03515625 36.5390625 C17.5565115 24.92610723 12.53611981 15.19189973 5 6 C4.46503906 5.33742187 3.93007813 4.67484375 3.37890625 3.9921875 C2.27271112 2.64469768 1.14043965 1.31863335 0 0 Z " fill="#deb522" transform="translate(693,133)"/>
<path d="M0 0 C3.15883337 1.89782205 5.47732189 4.33393699 8 7 C8.96903212 7.95551232 9.94195899 8.90708487 10.91796875 9.85546875 C15.15448726 13.99860235 19.29978186 18.15336393 23.15234375 22.66015625 C27.97426878 28.22452671 33.26222882 33.33244472 38.5 38.5 C44.37294384 44.29421303 50.20049171 50.06345068 55.56445312 56.34179688 C57.43841501 58.50641407 59.44574402 60.50706509 61.5 62.5 C64.78756023 65.74901262 67.86535659 69.08555987 70.875 72.58984375 C74.33589374 76.51515889 77.93190543 80.31383088 81.50976562 84.13232422 C86.09225118 89.02348093 90.64702858 93.93904347 95.18041992 98.87573242 C97.88584324 101.83979407 97.88584324 101.83979407 100.89453125 104.484375 C102 106 102 106 102.21875 108.8359375 C100.36224967 113.65569796 96.85980446 115.13193348 92.5 117.625 C90.75424484 118.67462644 89.01079878 119.72810178 87.26953125 120.78515625 C85.94429443 121.58397217 85.94429443 121.58397217 84.59228516 122.39892578 C70.00702575 131.40722595 56.06510739 142.10713717 43.4765625 153.734375 C41.44595866 155.5920252 39.38597326 157.39241489 37.30078125 159.1875 C32.53080046 163.35205159 28.03655738 167.77145735 23.5625 172.25 C22.72211182 173.09119385 21.88172363 173.9323877 21.01586914 174.79907227 C16.02648518 179.83799552 11.2995121 184.89930404 6.9453125 190.5 C4.82204682 193.22869484 2.57262948 195.82127295 0.3125 198.4375 C-21.69204794 224.87707311 -38.58258932 255.74557962 -51.08007812 287.68139648 C-51.54994141 288.86548096 -52.01980469 290.04956543 -52.50390625 291.26953125 C-52.91455322 292.32760986 -53.3252002 293.38568848 -53.74829102 294.47583008 C-55 297 -55 297 -58 299 C-65.99797123 298.17644653 -72.84251372 288.19755264 -78.21606445 282.76513672 C-81.67050146 279.28513357 -85.20870939 275.99647667 -88.953125 272.828125 C-92.21861879 269.91161528 -95.26513323 266.77618723 -98.32080078 263.64208984 C-100.89939941 260.97979512 -100.89939941 260.97979512 -104 259 C-104 258.34 -104 257.68 -104 257 C-104.59458008 256.7321167 -105.18916016 256.4642334 -105.80175781 256.18823242 C-108.02239757 254.98789327 -109.4243607 253.79297002 -111.171875 251.98828125 C-111.74945557 251.39909912 -112.32703613 250.80991699 -112.92211914 250.20288086 C-113.52531982 249.57905518 -114.12852051 248.95522949 -114.75 248.3125 C-120.23729392 242.69635298 -120.23729392 242.69635298 -126.0625 237.4375 C-130.36745799 233.79911615 -134.25899285 229.76647676 -138.21850586 225.76196289 C-141.68051016 222.27580858 -145.22846921 218.98345016 -148.9765625 215.8046875 C-152.0944002 213.02391334 -154.9949357 210.02800893 -157.92529297 207.05297852 C-160.60667272 204.34593293 -163.34289366 201.77452611 -166.25 199.3125 C-168.91616144 196.99338023 -171.52296022 194.64662649 -174 192.125 C-174.86625 191.26261719 -174.86625 191.26261719 -175.75 190.3828125 C-178.08725705 185.92741625 -177.68332675 181.32894665 -176.28955078 176.57861328 C-175.3013753 174.0044392 -174.21228769 171.50611001 -173.0625 169 C-172.65427002 168.08428223 -172.24604004 167.16856445 -171.82543945 166.22509766 C-158.74241812 137.28409716 -140.84263918 109.83750305 -119.265625 86.4765625 C-117.39140723 84.4278486 -115.57384751 82.34909307 -113.76171875 80.24609375 C-109.87438437 75.79213801 -105.75276183 71.60513215 -101.5625 67.4375 C-100.85029297 66.72142578 -100.13808594 66.00535156 -99.40429688 65.26757812 C-94.76727317 60.63897771 -89.99063913 56.24380816 -85 52 C-84.36296143 51.45625732 -83.72592285 50.91251465 -83.06958008 50.35229492 C-66.22587059 36.07771293 -48.35587538 23.57153203 -29.72851562 11.73632812 C-27.97486798 10.62037053 -26.22574868 9.49724721 -24.48242188 8.36523438 C-7.40497725 -2.69645198 -7.40497725 -2.69645198 0 0 Z " fill="#000000" transform="translate(377,428)"/>
<path d="M0 0 C0.82886719 0.97582031 1.65773438 1.95164062 2.51171875 2.95703125 C3.20527466 3.7600769 3.20527466 3.7600769 3.9128418 4.5793457 C8.18875238 9.58901383 12.23081391 14.79752522 16.2578125 20.0078125 C19.44985637 24.11994806 22.75582041 28.13411656 26.07421875 32.14453125 C27.26824181 33.5898333 28.46225221 35.03514582 29.65625 36.48046875 C30.24615723 37.19428711 30.83606445 37.90810547 31.44384766 38.64355469 C39.22650385 48.06933635 46.86142412 57.57303124 54.23657227 67.32177734 C58.81332466 73.33970514 63.58571208 79.18125065 68.44311523 84.97436523 C70.04547299 86.89300568 71.62880466 88.82468038 73.19921875 90.76953125 C73.71097656 91.39827148 74.22273437 92.02701172 74.75 92.67480469 C78.2361772 97.19098878 78.2361772 97.19098878 78.06652832 99.84664917 C76.61372419 103.067611 74.01435072 103.52619079 70.87475586 104.79595947 C66.20788507 106.49413576 61.48795198 107.96499339 56.73046875 109.38671875 C54.4650269 110.07556441 52.19964863 110.76461921 49.93432617 111.45385742 C48.75421967 111.81079681 47.57411316 112.16773621 46.35824585 112.53549194 C10.67945823 123.34961734 -24.4739614 134.7982009 -58.76269531 149.47949219 C-68.04734876 153.42196316 -68.04734876 153.42196316 -72.80078125 152.76953125 C-78.21293917 150.3948089 -81.92525687 146.81429992 -85.640625 142.3203125 C-88.47959384 138.96796773 -91.48038052 135.78258008 -94.48828125 132.58203125 C-95.71898736 131.26845151 -96.94945505 129.95464836 -98.1796875 128.640625 C-99.09258545 127.66585205 -99.09258545 127.66585205 -100.02392578 126.67138672 C-102.6694508 123.83975167 -105.29927075 120.99379699 -107.92578125 118.14453125 C-108.41409424 117.61496826 -108.90240723 117.08540527 -109.40551758 116.53979492 C-111.3574878 114.42222258 -113.30861001 112.30386977 -115.25976562 110.18554688 C-130.33096989 93.65692216 -130.33096989 93.65692216 -145.94970703 77.65454102 C-147.70322098 75.86888008 -149.32120995 74.02685123 -150.9375 72.1171875 C-153.62871319 69.01770646 -156.4343971 66.1134732 -159.38671875 63.26171875 C-160.17175781 62.50246094 -160.95679688 61.74320312 -161.765625 60.9609375 C-163.38850048 59.40118846 -165.01888822 57.84922247 -166.65625 56.3046875 C-167.43355469 55.54800781 -168.21085937 54.79132813 -169.01171875 54.01171875 C-169.71603027 53.33995605 -170.4203418 52.66819336 -171.14599609 51.97607422 C-173.17918029 49.26496198 -173.47984841 47.1044938 -173.80078125 43.76953125 C-170.35572518 40.79016149 -167.28149496 38.93484029 -163.015625 37.359375 C-161.86537842 36.93277588 -160.71513184 36.50617676 -159.5300293 36.06665039 C-158.26659675 35.61209795 -157.00266274 35.15893741 -155.73828125 34.70703125 C-155.08219879 34.47031708 -154.42611633 34.23360291 -153.75015259 33.98971558 C-114.2530066 19.77617909 -73.56555365 9.86334084 -32.55984497 1.06280518 C-30.6986146 0.66320944 -28.83813739 0.26008714 -26.97848511 -0.14678955 C-24.41025239 -0.70555817 -21.83890789 -1.24628595 -19.265625 -1.78125 C-18.15018311 -2.02708076 -18.15018311 -2.02708076 -17.01220703 -2.27787781 C-10.93493972 -3.50377125 -5.09160368 -4.05481967 0 0 Z " fill="#000000" transform="translate(576.80078125,370.23046875)"/>
<path d="M0 0 C3.00616835 2.19422559 5.5179345 4.795516 8.09375 7.47265625 C8.84410522 8.22912949 9.59446045 8.98560272 10.36755371 9.76499939 C12.75944557 12.183775 15.12945035 14.62282337 17.5 17.0625 C19.09371548 18.67775217 20.68875489 20.29169919 22.28515625 21.90429688 C28.49490938 28.20249434 34.62511591 34.50658935 40.41320801 41.19700623 C42.52450114 43.59596488 44.75549436 45.85105618 47.03125 48.09375 C47.92457031 48.97933594 48.81789063 49.86492187 49.73828125 50.77734375 C50.64964844 51.67582031 51.56101562 52.57429688 52.5 53.5 C58.01466629 58.93666535 63.47206136 64.34071183 68.45947266 70.27124023 C70.15567058 72.1746915 71.98043342 73.85823921 73.875 75.5625 C76.27652054 77.96947854 77.0837298 79.21313039 78.375 82.5 C77.75297236 88.30559133 73.17602959 91.20803304 68.82275391 94.79296875 C66.448906 96.64860013 64.04687718 98.45752394 61.625 100.25 C60.74577881 100.90331299 59.86655762 101.55662598 58.96069336 102.22973633 C-7.35844512 151.05837594 -7.35844512 151.05837594 -33.8984375 150.3828125 C-41.35735508 149.02412491 -45.99574215 140.3064806 -50.19921875 134.69140625 C-53.17618213 130.73028753 -56.29793095 126.89523267 -59.4375 123.0625 C-63.50982094 118.08046841 -67.54078006 113.07241083 -71.5 108 C-75.98026164 102.26189119 -80.55519437 96.60628227 -85.15966797 90.9675293 C-88.70111476 86.62245055 -92.18165946 82.2355824 -95.625 77.8125 C-99.75070225 72.51643931 -104.01297623 67.35529858 -108.38525391 62.26098633 C-109.59762088 60.84701278 -110.79925513 59.42385625 -112 58 C-112.61875 57.30132812 -113.2375 56.60265625 -113.875 55.8828125 C-115 54 -115 54 -114.84301758 52.00878906 C-114 50 -114 50 -112.1081543 48.86181641 C-111.29258057 48.56968262 -110.47700684 48.27754883 -109.63671875 47.9765625 C-108.72841309 47.6455957 -107.82010742 47.31462891 -106.88427734 46.97363281 C-103.18347144 45.72436805 -99.4783116 44.49586422 -95.75585938 43.3125 C-76.77956996 37.26829368 -58.58451259 29.33848693 -41 20 C-40.36078613 19.66178223 -39.72157227 19.32356445 -39.06298828 18.97509766 C-32.58237623 15.51501435 -26.26846717 11.93321631 -20.23828125 7.7265625 C-19.43825684 7.17129883 -18.63823242 6.61603516 -17.81396484 6.04394531 C-16.26338582 4.95500364 -14.72513334 3.84823138 -13.20166016 2.72167969 C-12.49444824 2.22313477 -11.78723633 1.72458984 -11.05859375 1.2109375 C-10.44298584 0.76024902 -9.82737793 0.30956055 -9.19311523 -0.15478516 C-5.64963524 -1.52042333 -3.64128507 -1.07255498 0 0 Z " fill="#000000" transform="translate(713,310)"/>
<path d="M0 0 C4.12382616 0.54838114 6.46930578 1.78929091 9.75 4.3125 C10.70777344 5.034375 11.66554688 5.75625 12.65234375 6.5 C13.1819873 6.89960938 13.71163086 7.29921875 14.25732422 7.7109375 C16.84571807 9.62558019 19.49115066 11.45563434 22.13354492 13.29467773 C30.1334342 18.86726167 37.88460092 24.6766166 45.48339844 30.78320312 C46.86098489 31.88846566 48.24647232 32.98386242 49.6328125 34.078125 C54.85426077 38.20827379 59.97394118 42.45007933 65.02124023 46.79077148 C67.75516684 49.13650558 70.50907395 51.41138983 73.390625 53.57421875 C80.220568 58.76667987 83.65597544 62.46805098 85 71 C85.16822266 72.0108667 85.33644531 73.0217334 85.50976562 74.06323242 C91.98514549 115.71969061 81.70762939 155.05682815 57.3815918 189.12670898 C51.73051841 196.78896135 51.73051841 196.78896135 48.1875 197.8125 C40.43619157 195.83667628 34.11196035 187.26020773 28.58984375 181.72265625 C27.43313927 180.56738686 27.43313927 180.56738686 26.25306702 179.38877869 C24.63419847 177.77058627 23.01657449 176.15114788 21.40014648 174.53051758 C18.94431282 172.06932768 16.48318635 169.61352191 14.02148438 167.15820312 C12.43978347 165.57584133 10.85839283 163.99316933 9.27734375 162.41015625 C8.55111313 161.68594986 7.82488251 160.96174347 7.0766449 160.21559143 C3.11561335 156.23657909 -0.64529365 152.15368195 -4.31230164 147.90339661 C-6.99267272 144.8804576 -9.87352676 142.07984674 -12.7734375 139.26953125 C-14.02256573 138.04275571 -15.2712513 136.81552931 -16.51953125 135.58789062 C-18.45726921 133.68742635 -20.39790334 131.79028597 -22.34619141 129.90063477 C-24.24772701 128.05348983 -26.13639259 126.19396196 -28.0234375 124.33203125 C-28.60878265 123.77046829 -29.19412781 123.20890533 -29.79721069 122.63032532 C-32.84787251 119.59968217 -34.88718367 117.41734291 -35 113 C-33.8828125 111.18359375 -33.8828125 111.18359375 -32.125 109.4375 C-10.75036788 86.62378373 2.16596604 56.43538159 2.1875 25.125 C2.20586914 23.73087891 2.20586914 23.73087891 2.22460938 22.30859375 C2.236285 16.72764599 1.71061447 11.6231008 0.4309082 6.18701172 C0 4 0 4 0 0 Z " fill="#000000" transform="translate(759,179)"/>
<path d="M0 0 C4.02635612 0.27847286 5.96093792 1.47903624 8.70703125 4.3515625 C9.37669922 5.03863281 10.04636719 5.72570312 10.73632812 6.43359375 C11.42146484 7.15675781 12.10660156 7.87992188 12.8125 8.625 C17.41881553 13.41204178 22.05813966 18.00135514 27.1003418 22.32958984 C30.04135811 24.91568849 32.76437374 27.70019482 35.5 30.5 C39.50655128 34.55704197 43.5588933 38.439992 47.91015625 42.12890625 C51.27419085 45.1408176 54.40400774 48.38423089 57.57617188 51.59570312 C60.90598332 54.9507723 64.3394031 58.09733029 67.94140625 61.16015625 C70.56498752 63.50495089 73.02989811 65.99630842 75.5 68.5 C78.53285146 71.5740377 81.5793933 74.57999179 84.875 77.375 C89.23236511 81.08682954 93.19444137 85.16819337 97.21557617 89.23510742 C100.6920344 92.73583059 104.25619213 96.04506296 108.015625 99.2421875 C120.79536522 110.56282352 120.79536522 110.56282352 121.16796875 115.00048828 C121.21188594 120.49782279 120.64743395 125.55334138 119.57617188 130.9387207 C114.94339699 154.54820527 114.46376424 180.72622536 121 204 C121.30808594 205.20011719 121.61617187 206.40023437 121.93359375 207.63671875 C122.58130018 210.10668059 123.26021018 212.5564518 124 215 C118.78760667 214.54718591 115.46009444 211.80766776 111.375 208.8125 C110.63862305 208.28221191 109.90224609 207.75192383 109.14355469 207.20556641 C106.75505763 205.48020609 104.37686279 203.74134564 102 202 C101.19530273 201.4136377 100.39060547 200.82727539 99.56152344 200.22314453 C84.66140578 189.36207195 70.08965845 178.17026388 55.82470703 166.48828125 C54.22229928 165.18131341 52.60996982 163.88652979 50.99609375 162.59375 C44.74715729 157.57277049 38.85365067 152.25020716 33 146.78125 C30.64983283 144.58932351 28.25562396 142.46347694 25.8125 140.375 C24.53952761 139.25242098 23.26881598 138.12727475 22 137 C21.18789062 136.30132813 20.37578125 135.60265625 19.5390625 134.8828125 C12.25418757 128.2104796 8.46191761 121.04833918 5 112 C4.73203613 111.30874023 4.46407227 110.61748047 4.18798828 109.90527344 C-0.37146948 97.8916388 -3.00387779 85.6703857 -5 73 C-5.11859375 72.26426758 -5.2371875 71.52853516 -5.359375 70.77050781 C-8.42785838 51.07194037 -7.40007745 31.58262872 -4 12 C-3.84241211 11.07896484 -3.68482422 10.15792969 -3.52246094 9.20898438 C-3.3577832 8.30986328 -3.19310547 7.41074219 -3.0234375 6.484375 C-2.80179932 5.26572754 -2.80179932 5.26572754 -2.57568359 4.02246094 C-2 2 -2 2 0 0 Z " fill="#000000" transform="translate(189,644)"/>
<path d="M0 0 C2.33604139 1.71102305 4.46464433 3.40615875 6.625 5.3125 C7.19734375 5.79912109 7.7696875 6.28574219 8.359375 6.78710938 C14.66139224 12.23175915 14.66139224 12.23175915 16 15 C15.13237127 19.50340628 13.35938369 22.09353826 10.1875 25.3125 C5.96994076 29.81576486 2.16965562 34.52515 -1.5625 39.4375 C-2.11969727 40.17025146 -2.67689453 40.90300293 -3.25097656 41.65795898 C-7.0393273 46.66942178 -10.73073994 51.73955012 -14.31640625 56.8984375 C-16.12557862 59.15675475 -17.40208988 60.69399817 -20 62 C-25.31097142 61.09647374 -28.84329553 58.09549426 -32.8125 54.6875 C-33.39708984 54.21376953 -33.98167969 53.74003906 -34.58398438 53.25195312 C-36.94956589 51.24819868 -38.78164097 49.45247593 -40.13671875 46.64453125 C-39.775324 39.65412414 -34.55095582 33.66453782 -30.4375 28.3125 C-29.91591309 27.62551025 -29.39432617 26.93852051 -28.85693359 26.23071289 C-23.7970846 19.62390855 -18.44520179 13.28969189 -13 7 C-11.81215051 5.58362636 -10.62457791 4.16702037 -9.4375 2.75 C-6.06954345 -1.04974586 -4.78931462 -1.53606869 0 0 Z " fill="#010101" transform="translate(419,617)"/>
<path d="M0 0 C4.21134671 0.67661526 6.71529081 3.03070705 9.9453125 5.703125 C10.87537109 6.43982422 10.87537109 6.43982422 11.82421875 7.19140625 C18.13631984 12.28181035 18.13631984 12.28181035 19.8203125 15.453125 C20.19429792 20.16148408 19.32031407 23.31732545 17.40625 27.6015625 C16.89497559 28.76510254 16.38370117 29.92864258 15.85693359 31.12744141 C15.30309105 32.36101659 14.74921681 33.59457755 14.1953125 34.828125 C13.08526828 37.34118581 11.98334851 39.85776299 10.8828125 42.375 C10.61326752 42.98932892 10.34372253 43.60365784 10.06600952 44.23660278 C7.4126768 50.31655672 5.10680357 56.48728068 2.90625 62.7421875 C1.8203125 65.453125 1.8203125 65.453125 -0.1796875 67.453125 C-5.2668376 67.35284068 -8.54273926 64.20166288 -12.3046875 61.140625 C-12.92472656 60.65400391 -13.54476563 60.16738281 -14.18359375 59.66601562 C-20.86795743 54.32571217 -20.86795743 54.32571217 -22.1796875 51.453125 C-22.43550231 44.77189454 -20.10642509 38.69125867 -17.6796875 32.578125 C-17.33019043 31.67989014 -16.98069336 30.78165527 -16.62060547 29.85620117 C-5.22543502 1.08629115 -5.22543502 1.08629115 0 0 Z " fill="#010101" transform="translate(359.1796875,694.546875)"/>
<path d="M0 0 C6.20292405 3.949583 11.616225 9.10457845 16 15 C14.56106859 18.53609741 12.91421439 20.03997132 9.75 22.125 C8.85667969 22.72828125 7.96335937 23.3315625 7.04296875 23.953125 C6.03878906 24.62859375 5.03460938 25.3040625 4 26 C-3.81552445 31.41092437 -11.40444661 36.98457459 -18.6953125 43.08984375 C-19.45585937 43.72019531 -20.21640625 44.35054687 -21 45 C-21.61617188 45.57878906 -22.23234375 46.15757812 -22.8671875 46.75390625 C-26.08382364 48.63322297 -28.34137539 48.45980548 -32 48 C-34.94921875 46.171875 -34.94921875 46.171875 -37.6875 43.75 C-38.59886719 42.96109375 -39.51023437 42.1721875 -40.44921875 41.359375 C-41.29097656 40.58078125 -42.13273437 39.8021875 -43 39 C-43.76183594 38.30777344 -44.52367187 37.61554687 -45.30859375 36.90234375 C-47 35 -47 35 -47.375 31.8125 C-45.05685279 21.56498944 -28.16035337 13.09604799 -20.09570312 7.46679688 C-18.26561246 6.18590397 -16.4522323 4.88489475 -14.640625 3.578125 C-13.24070312 2.61132812 -13.24070312 2.61132812 -11.8125 1.625 C-11.03519531 1.08101562 -10.25789063 0.53703125 -9.45703125 -0.0234375 C-5.90771188 -1.43413677 -3.66563002 -0.95572532 0 0 Z " fill="#010101" transform="translate(491,558)"/>
<path d="M0 0 C3.65215387 1.5372202 6.39478268 3.66708616 9.27734375 6.3203125 C9.83099609 6.78179687 10.38464844 7.24328125 10.95507812 7.71875 C13.78493308 10.28429721 14.7980186 11.82599644 15.23046875 15.64453125 C13.19204827 20.84937456 9.70271065 22.8482197 5.15234375 25.8828125 C3.4082701 27.10222348 1.66740949 28.32624201 -0.0703125 29.5546875 C-1.36606201 30.46637695 -1.36606201 30.46637695 -2.68798828 31.39648438 C-6.21604445 33.96361037 -9.50996138 36.75391437 -12.78515625 39.6328125 C-13.35008789 40.12313965 -13.91501953 40.6134668 -14.49707031 41.11865234 C-16.93788546 43.23968155 -19.36251496 45.37619518 -21.7734375 47.53125 C-25.13330513 50.38854919 -27.18102827 52.05289388 -31.59765625 52.6953125 C-37.92025099 50.03316735 -42.36935938 44.98610937 -47.16015625 40.1953125 C-47.14438885 35.78043986 -46.6521373 33.75221315 -43.703125 30.4140625 C-42.60126949 29.48765954 -41.48128361 28.58255375 -40.34765625 27.6953125 C-39.73962158 27.19757324 -39.13158691 26.69983398 -38.50512695 26.18701172 C-36.41162398 24.49384027 -34.29145738 22.84064023 -32.16015625 21.1953125 C-31.34289062 20.56399414 -30.525625 19.93267578 -29.68359375 19.28222656 C-23.89918376 14.84125016 -18.07061851 10.46702569 -12.16015625 6.1953125 C-11.36947754 5.59686523 -10.57879883 4.99841797 -9.76416016 4.38183594 C-4.07372194 0.25177515 -4.07372194 0.25177515 0 0 Z " fill="#010101" transform="translate(299.16015625,422.8046875)"/>
<path d="M0 0 C3.99076155 0.74114143 6.50221556 3.04604049 9.484375 5.6328125 C10.07347656 6.1071875 10.66257813 6.5815625 11.26953125 7.0703125 C14.1171738 9.49244524 15.56172624 11.01532881 16.8203125 14.60546875 C16.71427783 18.18654878 15.9904747 19.18375068 13.609375 21.8203125 C12.87203125 22.67882812 12.1346875 23.53734375 11.375 24.421875 C10.95669922 24.90430664 10.53839844 25.38673828 10.10742188 25.88378906 C7.41542988 29.06784503 4.89388766 32.38555026 2.359375 35.6953125 C1.80515869 36.41702637 1.25094238 37.13874023 0.67993164 37.88232422 C-3.51225346 43.3941469 -7.43022285 49.05083653 -11.19482422 54.86206055 C-12.7634794 57.28260586 -14.21891233 59.46109983 -16.265625 61.5078125 C-20.97932411 61.32651638 -24.02671349 58.78168751 -27.515625 55.8828125 C-28.05703125 55.46902344 -28.5984375 55.05523438 -29.15625 54.62890625 C-32.04991049 52.2488705 -33.23167929 50.62390164 -34.2890625 47.0078125 C-34.19268589 32.61557251 -14.27695473 14.00152548 -5.265625 3.5078125 C-4.79382813 2.91742188 -4.32203125 2.32703125 -3.8359375 1.71875 C-2.265625 0.5078125 -2.265625 0.5078125 0 0 Z " fill="#020202" transform="translate(225.265625,486.4921875)"/>
<path d="M0 0 C5.24613109 3.46021412 9.92335479 8.50528858 13 14 C12.79394531 16.01220703 12.79394531 16.01220703 12 18 C10.47973633 19.1184082 10.47973633 19.1184082 8.51953125 19.98828125 C7.79459473 20.31908691 7.0696582 20.64989258 6.32275391 20.99072266 C5.55624512 21.32378418 4.78973633 21.6568457 4 22 C3.26571777 22.33435059 2.53143555 22.66870117 1.77490234 23.01318359 C-0.58149146 24.0853809 -2.94586502 25.13811419 -5.3125 26.1875 C-10.70353555 28.58002831 -16.06396677 31.00646614 -21.3515625 33.62109375 C-22.20580811 34.04044189 -23.06005371 34.45979004 -23.94018555 34.8918457 C-25.57241217 35.69782641 -27.19919892 36.51494426 -28.81958008 37.34448242 C-34.2506494 40.01471376 -34.2506494 40.01471376 -37.78515625 39.9453125 C-41.90884554 38.18528991 -44.78064144 35.04446383 -48 32 C-48.54785156 31.53851563 -49.09570312 31.07703125 -49.66015625 30.6015625 C-51.0625 29.375 -51.0625 29.375 -53 27 C-52.88671875 24.53466797 -52.88671875 24.53466797 -52 22 C-50.171875 20.41455078 -50.171875 20.41455078 -47.75 19.0703125 C-46.84378906 18.56661133 -45.93757813 18.06291016 -45.00390625 17.54394531 C-39.73562604 14.8361589 -34.39389357 12.3216501 -29 9.875 C-27.88882812 9.36324219 -26.77765625 8.85148437 -25.6328125 8.32421875 C-5.14436879 -1.05225725 -5.14436879 -1.05225725 0 0 Z " fill="#020202" transform="translate(383,380)"/>
<path d="M0 0 C2.75418048 1.77351208 4.89801285 3.86095509 7.125 6.25 C8.00671875 7.11044922 8.00671875 7.11044922 8.90625 7.98828125 C12.95158632 12.1570668 12.95158632 12.1570668 13.14135742 15.46118164 C11.36578629 19.41073549 7.96697303 20.3490066 4.16796875 21.91796875 C3.37981277 22.26128738 2.5916568 22.60460602 1.77961731 22.95832825 C-0.74372033 24.05283548 -3.27743686 25.12047172 -5.8125 26.1875 C-7.50922863 26.91684248 -9.20520296 27.64794241 -10.90039062 28.38085938 C-14.64632971 29.99911079 -18.39920436 31.59995645 -22.15901184 33.18571472 C-23.47163406 33.76629909 -24.76093424 34.40084107 -26.0308075 35.06977844 C-29.25989569 36.59515874 -31.46747785 36.47100295 -35 36 C-38.00227731 34.36348812 -40.45574961 32.27062346 -43 30 C-43.76570312 29.33871094 -44.53140625 28.67742188 -45.3203125 27.99609375 C-49.60580154 24.06150712 -49.60580154 24.06150712 -51 22 C-51.05078125 19.44921875 -51.05078125 19.44921875 -50 17 C-45.82890745 13.91958182 -40.74388122 12.06736542 -36 10 C-34.95602051 9.53625977 -33.91204102 9.07251953 -32.83642578 8.59472656 C-29.29834285 7.03479224 -25.74606001 5.51259241 -22.1875 4 C-21.03137207 3.49452637 -19.87524414 2.98905273 -18.68408203 2.46826172 C-6.51508679 -2.57630809 -6.51508679 -2.57630809 0 0 Z " fill="#020202" transform="translate(569,521)"/>
<path d="M0 0 C4.11044551 0.54469018 6.56516362 2.82475265 9.609375 5.44140625 C10.19847656 5.90740234 10.78757813 6.37339844 11.39453125 6.85351562 C14.3485364 9.34914067 15.71126331 10.94080746 16.97265625 14.671875 C16.82256139 19.58359989 15.28062404 23.18368544 13.296875 27.62890625 C9.46266993 36.67022275 6.37637487 45.78255909 3.54052734 55.17724609 C2.37866658 58.93267991 1.1201621 62.6557214 -0.140625 66.37890625 C-5.17980066 65.99630217 -7.91048647 63.29786339 -11.390625 59.94140625 C-12.20273438 59.18633789 -12.20273438 59.18633789 -13.03125 58.41601562 C-18.02691357 53.71384729 -18.02691357 53.71384729 -18.42578125 49.03125 C-18.34110339 43.06213264 -16.38366162 37.57995779 -14.578125 31.94140625 C-14.21968506 30.79937744 -13.86124512 29.65734863 -13.49194336 28.48071289 C-4.64899774 0.82290653 -4.64899774 0.82290653 0 0 Z " fill="#020202" transform="translate(174.140625,564.62109375)"/>
<path d="M0 0 C4.0927826 0.58748076 6.64982271 2.77161949 9.875 5.25 C10.40585205 5.65677979 10.9367041 6.06355957 11.48364258 6.48266602 C21.65678123 14.31356246 21.65678123 14.31356246 23 17 C23.32183784 23.22219818 22.635441 29.0909853 21.78637695 35.25439453 C20.5856003 44.45714677 20.33252297 53.73261183 20 63 C14.04242144 61.54855172 9.97791158 58.2726536 5.25 54.5625 C4.48300781 53.97662109 3.71601563 53.39074219 2.92578125 52.78710938 C-0.28307936 50.30292115 -2.72801117 48.40798325 -5 45 C-5.44637917 41.33016808 -5.33123822 37.63148409 -5.3125 33.9375 C-5.30976074 32.86798096 -5.30702148 31.79846191 -5.30419922 30.6965332 C-5.00334758 7.50502137 -5.00334758 7.50502137 0 0 Z " fill="#020202" transform="translate(327,779)"/>
<path d="M0 0 C4.02072527 3.87639154 8.26717143 7.99268634 10.8984375 12.96875 C10.5684375 13.95875 10.2384375 14.94875 9.8984375 15.96875 C7.91503906 16.85668945 7.91503906 16.85668945 5.2890625 17.58203125 C4.31630371 17.85781006 3.34354492 18.13358887 2.34130859 18.41772461 C1.28766113 18.70268799 0.23401367 18.98765137 -0.8515625 19.28125 C-3.04168537 19.89316224 -5.23178916 20.50514277 -7.421875 21.1171875 C-8.5346582 21.42366211 -9.64744141 21.73013672 -10.79394531 22.04589844 C-13.92464047 22.91938734 -17.04150339 23.82924988 -20.15625 24.7578125 C-21.09629883 25.03584717 -22.03634766 25.31388184 -23.00488281 25.6003418 C-24.77908484 26.1256953 -26.55195067 26.65558924 -28.32324219 27.19067383 C-38.57401204 30.17757848 -38.57401204 30.17757848 -43.9765625 27.59375 C-48.42442393 24.29640206 -52.29676238 19.71182662 -55.1015625 14.96875 C-54.69165039 12.81640625 -54.69165039 12.81640625 -54.1015625 10.96875 C-26.6013271 3.00388418 -26.6013271 3.00388418 -16.8515625 0.46875 C-15.71203125 0.1696875 -14.5725 -0.129375 -13.3984375 -0.4375 C-8.9162054 -1.24472663 -4.22749796 -2.07445997 0 0 Z " fill="#020202" transform="translate(469.1015625,356.03125)"/>
<path d="M0 0 C0.59554687 0.59554688 1.19109375 1.19109375 1.8046875 1.8046875 C2.78115234 2.76375 2.78115234 2.76375 3.77734375 3.7421875 C4.40511719 4.3815625 5.03289063 5.0209375 5.6796875 5.6796875 C6.60587891 6.4840625 6.60587891 6.4840625 7.55078125 7.3046875 C11.63356744 10.92544938 11.63356744 10.92544938 11.83081055 14.15112305 C10.6796875 16.6796875 10.6796875 16.6796875 7.26489258 18.44067383 C5.75070567 18.98623183 4.227972 19.50842062 2.69921875 20.01171875 C1.89361008 20.2931926 1.0880014 20.57466644 0.25798035 20.8646698 C-1.44940894 21.4565902 -3.16030405 22.03847858 -4.87426758 22.61108398 C-7.48777922 23.48548498 -10.0887222 24.39111 -12.68945312 25.30273438 C-14.35091534 25.87428058 -16.0130067 26.4440018 -17.67578125 27.01171875 C-18.45100632 27.28039261 -19.22623138 27.54906647 -20.02494812 27.82588196 C-24.24105425 29.22230276 -27.81842058 30.10908567 -32.3203125 29.6796875 C-34.41015625 28.39453125 -34.41015625 28.39453125 -36.2578125 26.6171875 C-36.92554688 25.97910156 -37.59328125 25.34101562 -38.28125 24.68359375 C-38.95414063 24.02230469 -39.62703125 23.36101563 -40.3203125 22.6796875 C-41.01382813 22.06996094 -41.70734375 21.46023438 -42.421875 20.83203125 C-43.06898438 20.24550781 -43.71609375 19.65898438 -44.3828125 19.0546875 C-45.26646484 18.26191406 -45.26646484 18.26191406 -46.16796875 17.453125 C-47.3203125 15.6796875 -47.3203125 15.6796875 -46.89233398 13.06884766 C-46.70356689 12.2804248 -46.5147998 11.49200195 -46.3203125 10.6796875 C-41.34509262 8.95502615 -36.36467279 7.24666584 -31.37890625 5.55273438 C-29.68600061 4.97507879 -27.99455991 4.39311032 -26.3046875 3.80664062 C-23.86577138 2.96107301 -21.421888 2.13150889 -18.9765625 1.3046875 C-17.85731384 0.91095947 -17.85731384 0.91095947 -16.7154541 0.50927734 C-11.30959572 -1.29418741 -5.24384434 -2.98387102 0 0 Z " fill="#020202" transform="translate(644.3203125,496.3203125)"/>
<path d="M0 0 C2.2578125 1.3203125 2.2578125 1.3203125 4.125 3.125 C4.78628906 3.76308594 5.44757812 4.40117187 6.12890625 5.05859375 C7.05509766 6.01958984 7.05509766 6.01958984 8 7 C8.54527344 7.54785156 9.09054687 8.09570312 9.65234375 8.66015625 C11.0625 10.1875 11.0625 10.1875 13 13 C12.9152832 15.01196289 12.9152832 15.01196289 12 17 C9.96557617 18.38452148 9.96557617 18.38452148 7.29296875 19.62109375 C6.31908203 20.07967773 5.34519531 20.53826172 4.34179688 21.01074219 C3.30087891 21.48157227 2.25996094 21.95240234 1.1875 22.4375 C0.13755859 22.92250977 -0.91238281 23.40751953 -1.99414062 23.90722656 C-4.06652688 24.85990754 -6.1421467 25.80559107 -8.22119141 26.74365234 C-10.47490783 27.7625967 -12.71445026 28.80381298 -14.94921875 29.86328125 C-15.95597656 30.32089844 -16.96273437 30.77851563 -18 31.25 C-19.2375 31.81460937 -19.2375 31.81460937 -20.5 32.390625 C-24.0564872 33.25751875 -26.46120122 32.93330957 -30 32 C-32.25343614 30.28254739 -33.97542096 28.78223121 -35.875 26.75 C-36.3596875 26.27175781 -36.844375 25.79351562 -37.34375 25.30078125 C-40.21212134 22.3442756 -41.65322369 20.13116123 -42 16 C-33.81938494 11.72408188 -25.50959077 7.78342756 -17.0625 4.0625 C-16.1753833 3.6610376 -15.2882666 3.2595752 -14.37426758 2.84594727 C-9.44849081 0.70888938 -5.47025461 -0.78536739 0 0 Z " fill="#020202" transform="translate(712,468)"/>
<path d="M0 0 C1.86636221 1.53147884 3.50787987 3.14247728 5.16015625 4.90234375 C5.75570312 5.51335937 6.35125 6.124375 6.96484375 6.75390625 C10.12108602 10.17195664 10.12108602 10.17195664 11.16015625 11.90234375 C10.83015625 12.89234375 10.50015625 13.88234375 10.16015625 14.90234375 C5.37921687 16.81315965 0.17356233 17.7474603 -4.83984375 18.90234375 C-5.9371582 19.16015625 -7.03447266 19.41796875 -8.16503906 19.68359375 C-11.86514749 20.54598751 -15.57006129 21.38386379 -19.27734375 22.21484375 C-20.48559814 22.49368408 -21.69385254 22.77252441 -22.9387207 23.05981445 C-34.83733078 25.65529001 -34.83733078 25.65529001 -40.83984375 23.90234375 C-43.22632396 22.23846313 -45.02894989 20.30290455 -46.90234375 18.08984375 C-47.64774414 17.28836914 -47.64774414 17.28836914 -48.40820312 16.47070312 C-50.36606265 14.25687866 -51.77942427 12.64666031 -52.0234375 9.640625 C-48.61542044 4.63545143 -38.19545185 4.48921254 -32.58984375 3.40234375 C-31.50832031 3.18964844 -30.42679688 2.97695313 -29.3125 2.7578125 C-27.17395025 2.33732564 -25.03503957 1.91866972 -22.89575195 1.50195312 C-19.25581106 0.78774886 -15.62129512 0.04818557 -11.98803711 -0.69921875 C-3.73710189 -2.22956609 -3.73710189 -2.22956609 0 0 Z " fill="#020202" transform="translate(549.83984375,339.09765625)"/>
<path d="M0 0 C2.1953125 1.390625 2.1953125 1.390625 4.125 3.25 C4.79660156 3.89066406 5.46820312 4.53132813 6.16015625 5.19140625 C6.76730469 5.78824219 7.37445312 6.38507813 8 7 C9.2684375 8.0828125 9.2684375 8.0828125 10.5625 9.1875 C12 11 12 11 11.78662109 12.99316406 C10.62597273 15.95422228 8.44140163 16.65312084 5.66113281 17.91992188 C0.61084571 19.96968978 -4.51041475 21.80459271 -9.6640625 23.57421875 C-11.63153962 24.25225369 -13.59302543 24.9459716 -15.5546875 25.640625 C-16.81997998 26.07908576 -18.08559449 26.51661855 -19.3515625 26.953125 C-20.48416504 27.34661133 -21.61676758 27.74009766 -22.78369141 28.14550781 C-27.35047634 29.35878755 -30.60709383 29.69645308 -34.875 27.5625 C-39.2060904 24.3948142 -42.56476835 20.08042745 -46 16 C-45.67 15.01 -45.34 14.02 -45 13 C-43.13671875 12.11206055 -43.13671875 12.11206055 -40.6875 11.38671875 C-39.78451172 11.11093994 -38.88152344 10.83516113 -37.95117188 10.55102539 C-36.97728516 10.26606201 -36.00339844 9.98109863 -35 9.6875 C-32.98880552 9.07808187 -30.97839526 8.4660701 -28.96875 7.8515625 C-27.96328125 7.54508789 -26.9578125 7.23861328 -25.921875 6.92285156 C-21.03895779 5.38062002 -16.23690875 3.61337091 -11.45703125 1.77807617 C-7.49894547 0.31537079 -4.21375752 -0.54885077 0 0 Z " fill="#030303" transform="translate(623,317)"/>
<path d="M0 0 C3.54446907 1.73182528 6.03039528 4.18514999 8.7734375 6.984375 C9.33160156 7.51869141 9.88976562 8.05300781 10.46484375 8.60351562 C12.046875 10.19140625 12.046875 10.19140625 14.3984375 13.171875 C14.07387939 16.07785 13.64187867 16.94753686 11.45703125 18.9609375 C8.45710455 21.06222744 5.44529269 23.13953036 2.3984375 25.171875 C1.42124756 25.83654785 1.42124756 25.83654785 0.42431641 26.51464844 C-1.65475691 27.92097936 -3.7498012 29.29972547 -5.8515625 30.671875 C-6.5122876 31.11740723 -7.1730127 31.56293945 -7.85375977 32.02197266 C-12.19709938 34.79070898 -15.31313202 36.04813769 -20.6015625 35.171875 C-23.40234375 33.2734375 -23.40234375 33.2734375 -25.9140625 30.796875 C-26.75582031 29.98476563 -27.59757813 29.17265625 -28.46484375 28.3359375 C-29.16996094 27.62179687 -29.87507812 26.90765625 -30.6015625 26.171875 C-31.2615625 25.511875 -31.9215625 24.851875 -32.6015625 24.171875 C-33.06640625 21.7734375 -33.06640625 21.7734375 -32.6015625 19.171875 C-30.35546875 17.3203125 -30.35546875 17.3203125 -27.1640625 15.546875 C-25.97598567 14.87178558 -24.78988913 14.19320289 -23.60546875 13.51171875 C-22.96367676 13.14546387 -22.32188477 12.77920898 -21.66064453 12.40185547 C-19.42678175 11.06747076 -17.28030896 9.63921658 -15.12890625 8.17578125 C-14.37730225 7.66805176 -13.62569824 7.16032227 -12.85131836 6.63720703 C-11.37003423 5.63125195 -9.89534447 4.61550625 -8.42797852 3.58935547 C-3.40239158 0.22478263 -3.40239158 0.22478263 0 0 Z " fill="#020202" transform="translate(768.6015625,434.828125)"/>
<path d="M0 0 C5.36728307 0.33293297 8.07881324 3.38593618 11.75 6.9375 C12.33910156 7.48857422 12.92820313 8.03964844 13.53515625 8.60742188 C18.94619975 13.72614464 18.94619975 13.72614464 19.09765625 17.31225586 C19.08605469 18.27010986 19.07445312 19.22796387 19.0625 20.21484375 C19.05412109 21.28557129 19.04574219 22.35629883 19.03710938 23.45947266 C19.01874023 25.18109619 19.01874023 25.18109619 19 26.9375 C18.93258656 37.99789994 19.25557261 48.96652259 20 60 C15.97047834 59.42028108 13.59839694 57.35335573 10.5 54.8125 C9.5615625 54.05582031 8.623125 53.29914062 7.65625 52.51953125 C-0.55123086 44.73449426 -0.77592436 35.53644993 -1.09326172 24.86328125 C-1.45343315 4.36029944 -1.45343315 4.36029944 0 0 Z " fill="#030303" transform="translate(150,649)"/>
<path d="M0 0 C2.60546875 1.8984375 2.60546875 1.8984375 5.1875 4.375 C6.04730469 5.18710937 6.90710938 5.99921875 7.79296875 6.8359375 C9.20181646 8.21735632 10.60479933 9.60479933 12 11 C12.00390625 12.8359375 12.00390625 12.8359375 11 15 C9.00792345 16.70749418 7.098301 18.16298145 4.9375 19.625 C4.32060303 20.05014893 3.70370605 20.47529785 3.06811523 20.91333008 C1.74494727 21.81724372 0.41704437 22.71425769 -0.91503906 23.60498047 C-2.32126217 24.54586558 -3.72157084 25.49564291 -5.11621094 26.45361328 C-7.2091198 27.887501 -9.31944821 29.29108643 -11.4375 30.6875 C-12.08662354 31.13367676 -12.73574707 31.57985352 -13.40454102 32.03955078 C-16.75717564 34.19153039 -18.55399803 34.9913677 -22.6328125 35.0703125 C-26.63569744 33.79793376 -28.53718459 32.20259198 -31.4375 29.1875 C-32.30246094 28.31480469 -33.16742187 27.44210937 -34.05859375 26.54296875 C-36 24 -36 24 -36 20 C-34.12329102 18.46362305 -34.12329102 18.46362305 -31.50390625 17.01171875 C-30.55193359 16.46966797 -29.59996094 15.92761719 -28.61914062 15.36914062 C-27.61044922 14.81419922 -26.60175781 14.25925781 -25.5625 13.6875 C-18.92327226 9.98341728 -12.7869984 6.31975258 -7.05053711 1.29614258 C-4.48156221 -0.32770404 -2.98880818 -0.38648382 0 0 Z " fill="#020202" transform="translate(683,284)"/>
<path d="M0 0 C3.48882834 1.44799492 5.86154112 3.68247131 8.47265625 6.328125 C8.983125 6.80636719 9.49359375 7.28460938 10.01953125 7.77734375 C11.46484375 9.21875 11.46484375 9.21875 13.59765625 12.078125 C13.30569694 18.84601983 7.47503485 22.85749801 2.97265625 27.328125 C2.08191406 28.25109375 1.19117188 29.1740625 0.2734375 30.125 C-1.03947266 31.43984375 -1.03947266 31.43984375 -2.37890625 32.78125 C-3.17377441 33.58208008 -3.96864258 34.38291016 -4.78759766 35.20800781 C-8.05640926 37.54592535 -10.41305472 37.94603316 -14.40234375 38.078125 C-17.45703125 36.1640625 -17.45703125 36.1640625 -20.27734375 33.453125 C-21.22351563 32.57398438 -22.1696875 31.69484375 -23.14453125 30.7890625 C-25.45095246 28.0197609 -26.40824553 26.66641001 -26.40234375 23.078125 C-25.25 21.3046875 -25.25 21.3046875 -23.46484375 19.703125 C-22.81386719 19.105 -22.16289063 18.506875 -21.4921875 17.890625 C-20.80253906 17.2925 -20.11289062 16.694375 -19.40234375 16.078125 C-18.76425781 15.52125 -18.12617187 14.964375 -17.46875 14.390625 C-16.15724083 13.25064118 -14.83933378 12.11798254 -13.515625 10.9921875 C-10.32330995 8.10081158 -7.45750221 4.90360277 -4.578125 1.703125 C-2.40234375 0.078125 -2.40234375 0.078125 0 0 Z " fill="#020202" transform="translate(815.40234375,395.921875)"/>
<path d="M0 0 C3.56677749 0.59047323 5.41533359 1.95735668 8.0625 4.375 C8.73410156 4.98085938 9.40570312 5.58671875 10.09765625 6.2109375 C10.72542969 6.80132812 11.35320313 7.39171875 12 8 C12.89525391 8.63808594 12.89525391 8.63808594 13.80859375 9.2890625 C15 11 15 11 15.05859375 13.953125 C13.95338711 19.65761086 10.79948309 24.69564098 8.0625 29.75 C7.51142578 30.79027344 6.96035156 31.83054687 6.39257812 32.90234375 C4.37150273 36.69892038 2.38696511 40.41955233 0 44 C-4.93369898 43.60241254 -7.54104759 41.12805231 -10.875 37.75 C-11.64070312 37.03263672 -11.64070312 37.03263672 -12.421875 36.30078125 C-14.65252308 34.07616195 -15.98613113 32.73620589 -16.046875 29.51171875 C-14.77198455 26.45293309 -13.18837226 23.83856989 -11.375 21.0625 C-7.03915913 14.28675963 -3.47837526 7.25023843 0 0 Z " fill="#020202" transform="translate(845,347)"/>
<path d="M0 0 C4.35938199 0.53316183 6.8354531 2.03063032 10.25 4.75 C11.55710937 5.76320312 11.55710937 5.76320312 12.890625 6.796875 C15.33104182 9.34575479 16.01062435 10.47802709 16 14 C12.25523103 21.74137913 4.74412828 33.54222064 -3.41015625 37.03125 C-7.2439014 36.98499063 -8.87063776 35.2599579 -11.75 32.8125 C-12.71421875 32.01457031 -13.6784375 31.21664063 -14.671875 30.39453125 C-16.89387011 28.10915708 -17.81218469 27.13249112 -18 24 C-17.67 23.34 -17.34 22.68 -17 22 C-16.34 22 -15.68 22 -15 22 C-14.76023437 21.46117187 -14.52046875 20.92234375 -14.2734375 20.3671875 C-12.66516211 17.37757129 -10.68888398 14.81970566 -8.625 12.125 C-5.59570405 8.16361298 -2.7268813 4.17125678 0 0 Z " fill="#020202" transform="translate(716,243)"/>
<path d="M0 0 C4.58689661 0.54363219 7.48003442 2.40002374 11.25 5 C12.30703125 5.721875 13.3640625 6.44375 14.453125 7.1875 C17 9 17 9 18 10 C18.51396546 15.96199929 17.66004644 21.11388949 16.125 26.875 C15.95137939 27.52936035 15.77775879 28.1837207 15.59887695 28.85791016 C14.71777932 31.99893164 13.8276556 34.25851661 12 37 C7.95389518 35.56761983 4.73515887 33.6211273 1.25 31.125 C0.28578125 30.44695312 -0.6784375 29.76890625 -1.671875 29.0703125 C-4 27 -4 27 -4.9453125 25.23046875 C-5.03101013 21.7352295 -4.05550379 18.52437286 -3.125 15.1875 C-1.74674887 10.12599155 -0.6403812 5.21161292 0 0 Z " fill="#030303" transform="translate(730,197)"/>
<path d="M0 0 C3.95507085 0.40883878 6.26331467 2.57659624 9.1875 5.125 C10.06792969 5.87007813 10.94835937 6.61515625 11.85546875 7.3828125 C14.64918187 10.79226203 14.90729996 12.59012669 15 17 C14.56532626 20.81247336 13.87108241 24.54997182 13.125 28.3125 C12.93808594 29.31345703 12.75117187 30.31441406 12.55859375 31.34570312 C11.16332129 38.67335742 11.16332129 38.67335742 10 41 C6.31766057 39.42921185 3.74453885 37.13566869 0.8125 34.4375 C-0.06792969 33.63183594 -0.94835937 32.82617188 -1.85546875 31.99609375 C-4 30 -4 30 -5 29 C-4.87566431 24.6291224 -4.15906626 20.33424062 -3 16.125 C-1.83846162 11.86602593 -1.5422306 7.61636019 -1.24609375 3.22265625 C-1 1 -1 1 0 0 Z " fill="#050505" transform="translate(858,297)"/>
<path d="M0 0 C8.94703813 1.41403491 17.59125243 7.7898675 24 14 C27.33813609 18.87181356 28.76551866 24.2888995 30 30 C30.20367187 30.81339844 30.40734375 31.62679687 30.6171875 32.46484375 C30.80667969 33.22474609 30.80667969 33.22474609 31 34 C26.1601558 32.27766976 21.85856039 29.7642382 17.4375 27.1875 C16.68275391 26.76146484 15.92800781 26.33542969 15.15039062 25.89648438 C7.14639064 21.23512403 3.82510906 15.70512073 1 7 C0.49315162 4.63750012 0.20979028 2.41258824 0 0 Z " fill="#040404" transform="translate(325,851)"/>
<path d="M0 0 C7.10809287 2.20854771 16.13012622 5.01534582 20.08007812 11.87597656 C22.53258128 17.68901256 24 23.68163516 24 30 C19.50231882 29.44401358 16.60489449 27.7068147 12.875 25.1875 C11.84117187 24.50042969 10.80734375 23.81335938 9.7421875 23.10546875 C4.79745955 19.30887564 3.45582159 15.92523498 1.8125 9.9375 C1.46832031 8.70902344 1.12414062 7.48054687 0.76953125 6.21484375 C0 3 0 3 0 0 Z " fill="#040404" transform="translate(724,158)"/>
<path d="M0 0 C6.53829663 2.82163149 12.46901502 8.44326051 15.28125 14.9765625 C16.88807517 21.19497591 17.58920819 27.59731393 18 34 C13.69322335 33.49873621 11.39614668 30.93206173 8.3125 28.0625 C7.81427734 27.60681641 7.31605469 27.15113281 6.80273438 26.68164062 C2.18473943 22.40200623 1.66883942 19.27116051 0.9375 13.1875 C0.84662109 12.47529297 0.75574219 11.76308594 0.66210938 11.02929688 C0.20725422 7.33231627 -0.10978208 3.72527191 0 0 Z " fill="#040404" transform="translate(855,253)"/>
</svg>
